<svg id="_x33_0" enable-background="new 0 0 64 64" height="512" viewBox="0 0 64 64" width="512" xmlns="http://www.w3.org/2000/svg"><g><path d="m63 35v-14h-6v-4h4v-16h-18v8h-8.184c-.414-1.161-1.514-2-2.816-2-1.654 0-3 1.346-3 3 0 1.302.839 2.402 2 2.816v6.184h-4v12h7v6h-2v2.64c0 .479-.307.905-.843 1.127-.501.21-1.025.127-1.367-.215l-1.858-1.868-4.248 4.247 1.867 1.86c.338.336.422.873.197 1.409-.201.486-.637.8-1.11.8h-2.772l-.201-1.405c-.469-3.282-1.839-6.364-3.961-8.911-.889-1.068-1.435-2.368-1.619-3.734.982-.115 1.918-.54 2.622-1.243.834-.833 1.293-1.942 1.293-3.121v-1.864l3-1v-.721c0-3.38-1.26-6.294-2.2-8.001h2.2c1.103 0 2-.897 2-2v-2c0-1.103-.897-2-2-2h-.18l-.255-1.273c-1.011-5.057-5.488-8.727-10.645-8.727-5.601 0-10.245 4.203-10.803 9.776l-.117 1.224v3c0 .471.171.899.444 1.241-.29.83-.444 1.711-.444 2.587v.416c0 3.3 1.603 6.415 4.289 8.334l2.711 1.936v4.907c-.945.409-1.751 1.099-2.303 2.013-.445.735-.675 1.623-.685 2.566h-.012v24h17v-5.999h1.616l4.316 4.316 1.858-1.868c.343-.343.865-.427 1.41-.197.494.204.8.63.8 1.109v2.639h6v-2.64c0-.479.307-.905.843-1.127.5-.211 1.025-.127 1.367.215l1.858 1.868 4.248-4.247-1.867-1.859c-.343-.343-.426-.866-.198-1.41.201-.486.637-.8 1.11-.8h2.639v-2h7.184c.414 1.161 1.514 2 2.816 2 1.654 0 3-1.346 3-3 0-1.302-.839-2.402-2-2.816v-12.184zm-12-2v-10h9.683l-4.74 5.529-1.236-1.236-1.414 1.414 2.764 2.764 4.943-5.768v7.297zm-6-30h14v12h-14zm-13 6c.551 0 1 .448 1 1s-.449 1-1 1-1-.448-1-1 .449-1 1-1zm-3 12h7.106l-3.149 3.543-1.25-1.25-1.414 1.414 2.75 2.75 3.957-4.452v5.995h-8zm-9.313 24.879.15 1.051c-2.095-.333-3.78-1.952-4.14-4.104l-.662-3.949c.636.067 1.275.107 1.914.114 1.439 2.044 2.382 4.4 2.738 6.888zm1.291-21.592-2.978.993v1.72h-1.764c-.998 0-1.895-.555-2.341-1.447l-1.789.895c.788 1.574 2.37 2.553 4.13 2.553h1.724c-.084.487-.31.937-.667 1.294-.45.449-1.072.707-1.707.707l-3.586-.002v2l2.064.001c.154 1.389.619 2.726 1.356 3.912-.32-.03-.638-.079-.955-.125-.823-1.662-2.522-2.787-4.465-2.788v-8.586c0-.526-.213-1.042-.586-1.414l-1-1c-.267-.268-.414-.622-.414-1 0-.552.449-1 1-1h1v-2c0-1.103.897-2 2-2h6.472c.657 1.013 2.298 3.855 2.506 7.287zm2.022-11.287v2h-20l-.003-2zm-18-2h-1.895l.002-.024c.069-.689.223-1.347.436-1.976h1.457zm8 0h-2v-4h2zm7.604-.881.176.881h-1.78v-2h1.294c.124.363.233.734.31 1.119zm-8.684-7.119c3.043 0 5.79 1.572 7.392 4h-.312c-1.103 0-2 .897-2 2v2h-2v-4c0-1.103-.897-2-2-2h-2c-1.103 0-2 .897-2 2v4h-2v-2c0-1.103-.897-2-2-2h-.49c1.585-2.426 4.317-4 7.41-4zm-5.468 22.951c-2.162-1.544-3.452-4.052-3.452-6.707v-.416c0-.618.104-1.239.298-1.828h5.259c-.345.591-.557 1.268-.557 2v.171c-1.164.413-2 1.525-2 2.829 0 .911.355 1.769 1 2.414l1 1v1.643zm.956 11.518c.489-.811 1.303-1.337 2.246-1.448.096-.013.221-.021.344-.021 1.518 0 2.795 1.14 2.98 2.7l.746 4.456c.567 3.387 3.472 5.845 6.907 5.845l5.365-.001v6l-7.187.001c-5.423 0-10.104-4.044-10.89-9.407l-.891-6.085c-.09-.761.045-1.486.38-2.04zm12.592 23.531h-13v-11.584c2.085 4.498 6.661 7.585 11.809 7.585h1.191zm26-10h-.639c-1.285 0-2.445.799-2.972 2.068-.524 1.247-.27 2.644.648 3.558l.447.445-1.413 1.413-.445-.446c-.914-.919-2.311-1.173-3.592-.635-1.235.513-2.034 1.673-2.034 2.957v.64h-2v-.64c0-1.284-.799-2.444-2.067-2.971-1.25-.526-2.646-.271-3.56.648l-.444.446-1.526-1.526c.909-.188 1.594-.995 1.594-1.958h2.122c1.303 1.272 3.054 2 4.883 2 3.86 0 7-3.141 7-7s-3.14-7-7-7c-1.847 0-3.602.733-4.907 2.02-.097-.01-.194-.02-.293-.02-.72 0-1.394.268-1.93.739.034-.88-.275-1.738-.907-2.365l-.447-.445 1.413-1.413.445.446c.915.919 2.312 1.175 3.592.635 1.233-.512 2.032-1.672 2.032-2.956v-.64h2v.64c0 1.284.799 2.444 2.067 2.971 1.249.525 2.646.271 3.56-.648l.444-.446 1.413 1.413-.446.444c-.918.913-1.173 2.311-.635 3.593.513 1.234 1.673 2.033 2.958 2.033h.639zm-11.001-4h-2.383l-.188-.376c-.115-.23-.26-.437-.423-.624.858-.643 1.905-1 2.995-1 2.757 0 5 2.243 5 5s-2.243 5-5 5c-.336 0-.668-.037-.992-.103 2.276-.468 3.992-2.486 3.992-4.897 0-1.654-1.346-3-3.001-3zm-4.36.519.741 1.481h3.619c.552 0 1.001.448 1.001 1 0 1.654-1.347 3-3.001 3h-5.003v-4.586l1.14-1.139c.429-.427 1.233-.297 1.503.244zm27.361 3.481c-.551 0-1-.448-1-1s.449-1 1-1 1 .448 1 1-.449 1-1 1zm-1-3.816c-.847.302-1.514.969-1.816 1.816h-7.184v-2h-2.639c-.473 0-.909-.313-1.128-.842-.207-.494-.123-1.031.216-1.368l1.867-1.859-4.248-4.247-1.858 1.868c-.343.343-.865.427-1.41.197-.494-.204-.8-.63-.8-1.109v-2.64h-2v-6h3v-10.245l2.748-3.091-1.495-1.328-2.369 2.664h-4.884v-6.184c.847-.302 1.514-.969 1.816-1.816h8.184v6h12v4h-6v14h8z"/><path d="m49.943 10.529-1.236-1.236-1.414 1.414 2.764 2.764 6.702-7.821-1.518-1.3z"/></g></svg>